<?xml version="1.0" ?><svg id="Layer_2" style="enable-background:new 0 0 1000 1000;" version="1.1" viewBox="0 0 1000 1000" xml:space="preserve" xmlns="http://www.w3.org/2000/svg" xmlns:xlink="http://www.w3.org/1999/xlink"><path d="M265.559,590.7c6.569,0,12.082-4.525,13.59-10.63c0.266-1.077,0.407-2.204,0.407-3.364  c0-0.235-0.005-0.467-0.018-0.696c-0.073-1.507-0.384-2.95-0.897-4.292c-2.011-5.268-7.109-9.008-13.081-9.008  c-5.972,0-11.07,3.74-13.078,9.008c-0.514,1.343-0.824,2.785-0.897,4.292c-0.013,0.229-0.018,0.462-0.018,0.696  c0,1.161,0.141,2.287,0.407,3.364C253.479,586.175,258.99,590.7,265.559,590.7z" style="fill:#231F20;"/><path d="M735.034,590.7c6.569,0,12.082-4.525,13.59-10.63c0.266-1.077,0.407-2.204,0.407-3.364  c0-0.235-0.005-0.467-0.018-0.696c-0.073-1.507-0.383-2.95-0.897-4.292c-2.011-5.268-7.109-9.008-13.081-9.008  c-5.972,0-11.07,3.74-13.078,9.008c-0.514,1.343-0.824,2.785-0.897,4.292c-0.013,0.229-0.018,0.462-0.018,0.696  c0,1.161,0.141,2.287,0.407,3.364C722.954,586.175,728.465,590.7,735.034,590.7z" style="fill:#231F20;"/><path d="M168.245,589.61h45.21c5.78,23.41,26.91,40.76,52.1,40.76c25.19,0,46.33-17.35,52.11-40.76h365.26  c5.78,23.41,26.92,40.76,52.11,40.76c25.19,0,46.33-17.35,52.11-40.76h44.6c4.43,0,8.43-1.79,11.33-4.69  c2.9-2.9,4.69-6.9,4.69-11.32c0-6.8-4.23-12.61-10.21-14.93c0.18-1.03,0.27-2.09,0.27-3.17V449.72c0-10.34-8.43-18.36-18.31-18.36  c-1.21,0-2.44,0.12-3.68,0.37l-72.67-53.47c-7.62-5.61-16.84-8.63-26.3-8.63h-261.43c-10.65,0-20.95,3.83-29.01,10.8L353.965,443  c-6.3,5.44-14,9.01-22.22,10.28l-124.18,19.3c-19.1,2.97-34.08,17.93-37.08,37.02l-6.72,42.87c-0.23,1.46-0.93,2.74-1.94,3.7  c-1.01,0.97-2.33,1.6-3.79,1.76c-3.3,0.36-5.8,3.15-5.8,6.47v3.13c0,0.82,0.15,1.61,0.44,2.34c-0.29,1.2-0.44,2.45-0.44,3.73  C152.235,582.44,159.405,589.61,168.245,589.61z M797.755,533.77l2.84-23.07c0.18-1.45,1.08-2.72,2.39-3.39l11.1-5.62  c2.93-1.48,6.4,0.65,6.4,3.93v28.69c0,2.43-1.97,4.4-4.41,4.4h-13.95C799.475,538.71,797.435,536.39,797.755,533.77z   M531.755,505.22c-1.54,1.54-3.66,2.49-6.01,2.49h-17.25c-4.69,0-8.5-3.81-8.5-8.5s3.81-8.5,8.5-8.5h17.25c4.7,0,8.5,3.81,8.5,8.5  C534.245,501.55,533.295,503.68,531.755,505.22z M689.245,499.21c0-4.69,3.8-8.5,8.5-8.5h17.25c4.69,0,8.5,3.81,8.5,8.5  c0,2.34-0.95,4.47-2.49,6.01c-1.54,1.54-3.67,2.49-6.01,2.49h-17.25C693.045,507.71,689.245,503.9,689.245,499.21z M756.355,557.58  c4.02,4.46,6.64,10.17,7.22,16.46c0.09,0.88,0.13,1.77,0.13,2.67c0,4.64-1.11,9.02-3.08,12.9c-4.73,9.34-14.42,15.76-25.59,15.76  c-11.17,0-20.86-6.42-25.59-15.76c-1.97-3.88-3.08-8.26-3.08-12.9c0-0.9,0.04-1.79,0.13-2.67c0.58-6.29,3.2-12,7.22-16.46  c5.24-5.85,12.86-9.54,21.32-9.54C743.495,548.04,751.115,551.73,756.355,557.58z M566.835,449.83l17.78-49.56  c0.01-0.02,0.02-0.04,0.02-0.06c1.24-3.4,4.57-5.58,8.19-5.58h96.57c0.25,0.27,0.49,0.55,0.73,0.84l40.15,49.57  c3.02,3.73,4.26,8.6,3.39,13.32c-0.71,3.91-2.77,7.27-5.65,9.66c-2.87,2.39-6.56,3.81-10.53,3.81h-135.17  C570.925,471.83,562.985,460.55,566.835,449.83z M380.565,453.06l62.2-53.71c3.53-3.05,8.02-4.72,12.67-4.72h93.6  c6.98,0,11.76,7.03,9.21,13.52l-22.59,57.41c-1.49,3.79-5.14,6.27-9.21,6.27h-137.14c-1.82,0-3.61-0.5-5.16-1.45l-2.27-1.39  C376.155,465.5,375.495,457.44,380.565,453.06z M237.025,574.04c0.58-6.29,3.21-12,7.21-16.46c5.25-5.85,12.86-9.54,21.32-9.54  c8.46,0,16.08,3.69,21.32,9.54c4.02,4.46,6.64,10.17,7.22,16.46c0.09,0.88,0.13,1.77,0.13,2.67c0,4.64-1.11,9.02-3.08,12.9  c-4.73,9.34-14.42,15.76-25.59,15.76c-11.16,0-20.86-6.42-25.58-15.76c-1.97-3.88-3.08-8.26-3.08-12.9  C236.895,575.81,236.935,574.92,237.025,574.04z M179.285,530.97l4.37-19.23c0.34-1.52,1.24-2.86,2.51-3.76l5.43-3.86  c1.81-1.29,4.18-1.53,6.22-0.63c2.34,1.03,3.78,3.34,3.78,5.79c0,0.58-0.08,1.16-0.24,1.73l-6.53,23.09  c-0.77,2.73-3.26,4.61-6.1,4.61h-3.27C181.395,538.71,178.375,534.93,179.285,530.97z" style="fill:#231F20;"/></svg>