<svg width="512" height="512" xmlns="http://www.w3.org/2000/svg">

 <g>
  <title>background</title>
  <rect fill="none" id="canvas_background" height="402" width="582" y="-1" x="-1"/>
 </g>
 <g>
  <title>Layer 1</title>
  <path fill="#e50b4c" fill-rule="nonzero" stroke-width="12.257193" id="rect3000" d="m257.37522,127.000637c-4.8787,-0.007 -9.7472,0.0149 -14.625,0.0625c-26.2155,0.45412 -52.59256,1.09099 -78.56254,4.71875c-8.96234,4.55564 -13.55851,14.55676 -19.15625,22.46875c-10.12071,16.93494 -14.83011,36.39488 -20.40625,55.09375c-2.33939,2.54334 -3.93914,6.08182 -6.5625,8.21875c-2.34653,-0.56737 0.16989,-5.85994 -0.40625,-8.375c1.37376,-7.76868 -7.92481,-12.49868 -14.40625,-9.53125c-6.55994,2.53411 -16.50069,3.20512 -19.03125,10.9375c-0.0656,8.76844 8.97889,15.33269 17.4375,14.25c3.89334,0.63545 5.54285,5.48688 7.9375,8.15625c0.20345,14.16215 -3.01509,28.35865 -2.21875,42.625c0.40894,9.02681 -0.49474,18.52161 2.28125,27.1875c0.78185,0.82403 1.53239,1.06335 2.25,0.96875c-0.15663,0.51679 -0.28125,1.04709 -0.28125,1.59375l0,73.5c0.002,3.2064 2.9186,6.125 6.125,6.125l24.5,0c3.2065,-0.002 6.125,-2.9186 6.125,-6.125l0,-25.34375l215.09374,0l0,25.34375c0,3.20644 2.9186,6.1228 6.125,6.125l24.5,0c3.2065,-0.002 6.1228,-2.91856 6.125,-6.125l0,-73.5c-0.0003,-0.58054 -0.1054,-1.14156 -0.2813,-1.6875c4.4066,0.0238 3.2938,-7.08095 4,-10.25c0.7468,-19.03564 0.6947,-38.40513 -2.2812,-57.15625c0.5024,-4.53942 4.4827,-8.73212 7.8438,-11.3125c8.0947,0.39888 17.0373,-4.24526 18.2812,-12.90625c-1.1452,-8.04363 -11.232,-9.68558 -17.5625,-12c-5.7289,-2.37005 -15.4547,-1.26068 -16.0313,6.375c-0.6076,3.47759 1.6384,8.89166 0.094,11.1875c-3.5578,-1.48791 -4.9751,-6.11035 -7.375,-9c-4.8847,-17.08337 -9.3182,-34.78291 -17.6875,-50.65625c-5.7714,-9.23162 -11.5938,-19.37488 -20.5,-25.9375c-15.4387,-3.25252 -31.6837,-2.48997 -47.4375,-4c-14.6189,-0.70691 -29.27,-1.0101 -43.9062,-1.03125l-0.0002,0zm3.9062,26.53125c25.941,0.35282 52.1057,0.1775 77.875,2.6875c8.2326,0.8607 9.8667,10.68442 13.9375,16.34375c3.9268,8.35393 9.3665,16.86812 10.3437,26.125c-7.0694,5.15424 -16.8606,6.10852 -24.9062,9.65625c-10.6236,3.64064 -22.2934,0.86923 -33.375,1.75c-41.8528,-0.0991 -83.7348,0.57362 -125.56249,-0.3125c-10.29278,-3.33174 -21.31546,-5.84007 -31.03125,-10.25c0.35012,-8.99457 5.75799,-17.28455 9.28125,-25.46875c4.00823,-6.19643 6.39103,-15.46379 14.09375,-17.875c29.53436,-3.01686 59.62234,-2.28256 89.34374,-2.65625zm-120.06249,55.96875c13.33447,1.39997 27.04798,4.77757 37.96875,12.75c3.87286,3.46206 5.1315,10.61724 2.5,14.875c-9.0062,3.79894 -20.21496,-0.68661 -28.59375,4.84375c-6.22292,3.86705 -1.32892,12.47841 -5.21875,17.21875c-7.34105,1.49565 -16.01208,1.23782 -23.03125,-1.65625c-6.05839,-4.65862 -2.93633,-13.92376 -2.71875,-20.375c1.67158,-10.74383 5.87241,-26.83424 19.09375,-27.65625zm230.96869,0.0937c9.1203,1.0013 13.4372,11.24514 15.6876,19.03125c1.7155,8.71832 5.0759,18.89772 0.875,27.21875c-5.2838,5.68495 -14.4758,3.2244 -21.4063,4.21875c-3.9705,1.3267 -5.1861,-2.52806 -5.0313,-5.6875c0.4892,-5.64291 -0.5852,-13.07116 -7.375,-14.125c-7.8448,-2.60412 -16.7452,-0.0746 -24.375,-2.625c-4.3585,-6.52172 -0.092,-16.40959 7.1876,-18.9375c10.6675,-5.26346 22.4184,-8.73197 34.4374,-9.09375z"/>
 </g>
</svg>